<?xml version="1.0" encoding="UTF-8"?>
<svg version="1.1" xmlns="http://www.w3.org/2000/svg" width="1200" height="1200">
<path d="M0 0 C1.27904583 -0.00483667 1.27904583 -0.00483667 2.58393097 -0.00977105 C3.52613243 -0.00822245 4.46833389 -0.00667385 5.43908691 -0.00507832 C6.43577141 -0.00734387 7.4324559 -0.00960943 8.45934296 -0.01194364 C11.82044105 -0.01830616 15.18149906 -0.01745284 18.54260254 -0.01662922 C20.94356336 -0.01961927 23.3445237 -0.02302144 25.7454834 -0.02680683 C31.60266287 -0.03474454 37.45983285 -0.03786212 43.3170166 -0.03841921 C48.07572574 -0.03889383 52.83443156 -0.04094584 57.59313965 -0.04411983 C71.07355064 -0.05292864 84.55395367 -0.05753878 98.03436756 -0.05678936 C98.76153823 -0.0567494 99.4887089 -0.05670945 100.23791504 -0.05666828 C100.96596942 -0.0566274 101.6940238 -0.05658652 102.44414043 -0.0565444 C114.25055315 -0.05613771 126.05693402 -0.06571238 137.86333752 -0.07980665 C149.97488568 -0.09415158 162.08641828 -0.10107789 174.19797516 -0.10021287 C181.00223638 -0.09988028 187.80646419 -0.10265447 194.61071777 -0.11339092 C201.00625186 -0.12341753 207.40173347 -0.12317992 213.79727173 -0.11587429 C216.15076805 -0.11482329 218.50426869 -0.11722159 220.85775757 -0.12323475 C224.05812935 -0.13088509 227.25825223 -0.12635642 230.45861816 -0.11860371 C231.40081963 -0.12374727 232.34302109 -0.12889083 233.31377411 -0.13419026 C234.59281994 -0.12729207 234.59281994 -0.12729207 235.89770508 -0.12025452 C236.63707558 -0.12047188 237.37644608 -0.12068925 238.13822174 -0.12091321 C239.94885254 0.12863445 239.94885254 0.12863445 241.94885254 2.12863445 C241.94885254 33.80863445 241.94885254 65.48863445 241.94885254 98.12863445 C329.39885254 98.12863445 416.84885254 98.12863445 506.94885254 98.12863445 C506.94885254 135.08863445 506.94885254 172.04863445 506.94885254 210.12863445 C458.93385254 210.62363445 458.93385254 210.62363445 409.94885254 211.12863445 C413.00135254 219.99738445 416.05385254 228.86613445 419.19885254 238.00363445 C420.15437012 240.78398113 421.1098877 243.56432781 422.09436035 246.42892742 C422.86337068 248.6596263 423.63256438 250.89026198 424.40197754 253.12082195 C424.79175781 254.25721111 425.18153809 255.39360027 425.58312988 256.56442547 C427.60654396 262.4226789 429.71971707 268.2015616 432.13604736 273.91015911 C435.59235374 283.34382256 434.34318155 293.14160319 430.26135254 302.12863445 C424.87602645 312.06329738 417.35506875 317.23751697 406.94885254 321.12863445 C395.67761241 323.82212934 386.16477476 320.83526643 376.53088379 314.91891766 C372.30133811 311.98631001 368.81549273 308.45600106 365.26135254 304.75363445 C364.55430176 304.0369157 363.84725098 303.32019695 363.11877441 302.58175945 C359.71176323 299.10252591 356.41957007 295.55733109 353.23791504 291.87082195 C350.66430575 288.89355965 347.99831961 286.20202147 345.01135254 283.62863445 C344.2392041 282.95832195 343.46705566 282.28800945 342.67150879 281.59738445 C341.81879395 280.8703532 341.81879395 280.8703532 340.94885254 280.12863445 C343.32441472 277.67492878 345.68995864 275.56633253 348.44885254 273.56613445 C353.00723211 269.66596918 354.75245948 264.91382457 355.94885254 259.12863445 C356.33718916 252.53662031 354.80105088 246.51939849 350.94885254 241.12863445 C345.61429 235.42660799 340.1733146 232.80240059 332.41369629 232.10519695 C325.49687224 232.17096707 319.36175709 234.59818531 314.42150879 239.43332195 C307.37629452 247.54372777 308.62639745 255.81007159 308.94885254 266.12863445 C300.36885254 266.12863445 291.78885254 266.12863445 282.94885254 266.12863445 C283.27885254 262.16863445 283.60885254 258.20863445 283.94885254 254.12863445 C282.50247055 246.53512902 280.08183762 241.02603646 273.94885254 236.12863445 C267.03445962 232.01976198 260.76795494 231.57879197 252.96838379 233.1794157 C246.6139706 235.17698673 242.59884011 238.67559768 238.94885254 244.19113445 C235.68166863 250.79217949 235.64309301 258.05090235 237.87072754 265.0075407 C240.32050906 270.34456473 243.08798763 273.85283419 247.94885254 277.12863445 C248.93885254 277.45863445 249.92885254 277.78863445 250.94885254 278.12863445 C250.38410827 281.60405573 249.40313464 282.92382352 246.66760254 285.08957195 C242.88967233 288.24626498 239.42081487 291.59244671 235.98010254 295.10519695 C235.45126465 295.64215191 234.92242676 296.17910686 234.37756348 296.73233318 C232.177506 298.96777701 229.98102722 301.20654192 227.79406738 303.45480633 C217.81605347 313.69625639 209.16117815 321.54790848 194.15588379 322.26144695 C184.25113763 321.77549981 174.82844125 317.94147568 167.63244629 311.08957195 C164.76508966 307.74986655 162.80862438 304.09765971 160.94885254 300.12863445 C160.53635254 299.32425945 160.12385254 298.51988445 159.69885254 297.69113445 C155.96194253 284.92335858 159.71023811 272.7921554 164.15979004 260.71457195 C164.77390244 259.01103054 164.77390244 259.01103054 165.40042114 257.27307415 C166.69864757 253.67970322 168.01117524 250.09174795 169.32385254 246.50363445 C170.19715394 244.0898994 171.0695575 241.67583931 171.94104004 239.26144695 C175.47782876 229.49283333 179.04325483 219.75682524 182.94885254 210.12863445 C179.31885254 210.45863445 175.68885254 210.78863445 171.94885254 211.12863445 C171.53111572 212.32649578 171.11337891 213.52435711 170.6829834 214.75851727 C169.09699534 219.3062452 167.51085871 223.85392131 165.92468262 228.40158367 C165.24495611 230.3504633 164.56526715 232.29935602 163.88562012 234.24826336 C163.22535954 236.14156424 162.56500985 238.03483404 161.90457153 239.92807293 C161.24301531 241.82498644 160.5818633 243.72204098 159.92111206 245.61923504 C158.26791968 250.36297945 156.6059236 255.10330314 154.92590332 259.83761883 C154.60432755 260.74687115 154.28275177 261.65612347 153.95143127 262.59292889 C153.34441686 264.30799963 152.73474569 266.02213329 152.12193298 267.7351408 C147.57152895 280.61435889 147.37766695 293.44322352 152.94885254 306.12863445 C155.56584997 310.62792701 158.42726982 314.65259206 162.16760254 318.2809782 C163.94885254 320.12863445 163.94885254 320.12863445 163.94885254 322.12863445 C142.07892449 322.17530096 120.20900463 322.210597 98.33903694 322.2322588 C88.18503279 322.2425829 78.03105953 322.25666483 67.8770752 322.27951336 C59.02957193 322.2994126 50.18209102 322.31234263 41.334566 322.31681144 C36.64742508 322.31942472 31.96034815 322.32559044 27.27322769 322.34009457 C22.86563132 322.35362379 18.45812557 322.35786659 14.05051041 322.35484982 C12.42911284 322.35540208 10.80771238 322.35940718 9.1863327 322.3670454 C6.97987255 322.37693394 4.77375872 322.37462592 2.56729126 322.36914349 C1.33024508 322.37098707 0.09319889 322.37283066 -1.18133354 322.37473011 C-4.05114746 322.12863445 -4.05114746 322.12863445 -6.05114746 320.12863445 C-6.29724312 318.16462803 -6.29724312 318.16462803 -6.29165649 315.71210003 C-6.29578898 314.32254006 -6.29578898 314.32254006 -6.30000496 312.90490818 C-6.28921063 311.3699227 -6.28921063 311.3699227 -6.27819824 309.80392742 C-6.27843931 308.71334593 -6.27868038 307.62276443 -6.27892876 306.49913502 C-6.27743168 302.95628204 -6.26218077 299.41363747 -6.24645996 295.87082195 C-6.24352075 293.6886127 -6.24147956 291.50640204 -6.24035645 289.32419109 C-6.22985495 281.21731743 -6.20193272 273.11047391 -6.17614746 265.00363445 C-6.13489746 246.89488445 -6.09364746 228.78613445 -6.05114746 210.12863445 C-54.56114746 210.12863445 -103.07114746 210.12863445 -153.05114746 210.12863445 C-153.05114746 173.16863445 -153.05114746 136.20863445 -153.05114746 98.12863445 C-104.54114746 98.12863445 -56.03114746 98.12863445 -6.05114746 98.12863445 C-6.05114746 66.11863445 -6.05114746 34.10863445 -6.05114746 1.12863445 C-3.77352586 -0.01017635 -2.52957136 0.00241001 0 0 Z M5.01135254 18.44113445 C2.61945585 24.49122607 2.31675702 29.34906292 4.85900879 35.30050945 C7.23699964 39.28939733 10.54530033 41.66078372 14.94885254 43.12863445 C21.48307589 43.90109109 25.66006475 43.06929986 30.94885254 39.12863445 C34.12875063 35.27928414 35.85036562 32.15146713 35.94885254 27.12863445 C34.7498732 21.14434821 32.7978736 17.03150506 27.94885254 13.12863445 C19.518065 8.22660953 10.98556408 11.3106239 5.01135254 18.44113445 Z M13.94885254 210.12863445 C13.90256033 221.55058005 13.86699919 232.97250341 13.8452282 244.39452362 C13.83478047 249.69793601 13.82060322 255.00128433 13.79797363 260.30465984 C13.77628054 265.4204417 13.76429137 270.53616183 13.75909805 275.65198612 C13.75539594 277.60606833 13.74816686 279.56014706 13.73739243 281.51420307 C13.72292448 284.24618805 13.72087263 286.97791631 13.72180176 289.70993328 C13.71461121 290.52201244 13.70742065 291.33409161 13.70001221 292.17077923 C13.71423939 296.02376503 13.76005611 297.8454398 15.94885254 301.12863445 C18.92600415 301.50869636 20.99149294 301.70029673 23.61897278 300.13136578 C25.75613722 296.91290476 25.33902554 293.44414417 25.28942871 289.70993328 C25.28986679 288.85118099 25.29030487 287.9924287 25.29075623 287.10765362 C25.28866477 284.26676038 25.26531697 281.42645595 25.24182129 278.5856657 C25.2362266 276.61697493 25.2319559 274.64827999 25.22895813 272.67958355 C25.21749934 267.49599981 25.1880232 262.31266794 25.15484619 257.12918377 C25.12416762 251.84062387 25.11045752 246.5520233 25.09533691 241.26340008 C25.06315455 230.88503416 25.01194565 220.50685525 24.94885254 210.12863445 C21.31885254 210.12863445 17.68885254 210.12863445 13.94885254 210.12863445 Z M199.94885254 210.12863445 C200.22709678 218.89332793 203.11166048 224.38983193 209.38635254 230.50363445 C216.55957085 235.0525046 222.45421209 236.14528025 230.94885254 235.12863445 C237.67929321 233.06965096 241.76003948 228.74305005 246.19885254 223.44113445 C248.58612335 218.92237184 248.67384048 215.21635748 248.94885254 210.12863445 C245.64885254 210.12863445 242.34885254 210.12863445 238.94885254 210.12863445 C238.70650879 210.81570477 238.46416504 211.50277508 238.21447754 212.2106657 C237.87932129 213.11172039 237.54416504 214.01277508 237.19885254 214.94113445 C236.87400879 215.83445477 236.54916504 216.72777508 236.21447754 217.6481657 C234.78518404 220.4494045 233.65692535 221.56628475 230.94885254 223.12863445 C226.58602555 224.38195566 222.93426603 224.46330319 218.63635254 223.00363445 C214.51515933 220.12838338 212.32180868 217.77585739 211.19885254 212.81613445 C211.07510254 211.48582195 211.07510254 211.48582195 210.94885254 210.12863445 C207.31885254 210.12863445 203.68885254 210.12863445 199.94885254 210.12863445 Z M345.94885254 210.12863445 C347.29062246 215.16473814 347.29062246 215.16473814 350.32385254 216.19113445 C353.09397338 216.38694059 353.09397338 216.38694059 355.26135254 214.31613445 C357.15245369 212.32516612 357.15245369 212.32516612 356.94885254 210.12863445 C353.31885254 210.12863445 349.68885254 210.12863445 345.94885254 210.12863445 Z M383.94885254 210.12863445 C385.4017424 214.71283075 385.4017424 214.71283075 386.94885254 216.12863445 C389.36423092 216.54580724 389.36423092 216.54580724 391.94885254 216.12863445 C393.9249564 214.08438908 394.94885254 213.01095195 394.94885254 210.12863445 C391.31885254 210.12863445 387.68885254 210.12863445 383.94885254 210.12863445 Z M366.76135254 226.12863445 C366.16322754 226.78863445 365.56510254 227.44863445 364.94885254 228.12863445 C365.60885254 230.10863445 366.26885254 232.08863445 366.94885254 234.12863445 C369.25039364 234.90665632 369.25039364 234.90665632 371.94885254 235.12863445 C374.25389298 233.79710179 374.25389298 233.79710179 375.94885254 232.12863445 C375.68228682 229.19420043 375.68228682 229.19420043 374.94885254 226.12863445 C371.30302247 223.69808108 370.07988417 223.09454839 366.76135254 226.12863445 Z " fill="#000000" transform="translate(386.0511474609375,438.8713655471802)"/>
<path d="M0 0 C1.27904583 -0.00483667 1.27904583 -0.00483667 2.58393097 -0.00977105 C3.52613243 -0.00822245 4.46833389 -0.00667385 5.43908691 -0.00507832 C6.43577141 -0.00734387 7.4324559 -0.00960943 8.45934296 -0.01194364 C11.82044105 -0.01830616 15.18149906 -0.01745284 18.54260254 -0.01662922 C20.94356336 -0.01961927 23.3445237 -0.02302144 25.7454834 -0.02680683 C31.60266287 -0.03474454 37.45983285 -0.03786212 43.3170166 -0.03841921 C48.07572574 -0.03889383 52.83443156 -0.04094584 57.59313965 -0.04411983 C71.07355064 -0.05292864 84.55395367 -0.05753878 98.03436756 -0.05678936 C98.76153823 -0.0567494 99.4887089 -0.05670945 100.23791504 -0.05666828 C100.96596942 -0.0566274 101.6940238 -0.05658652 102.44414043 -0.0565444 C114.25055315 -0.05613771 126.05693402 -0.06571238 137.86333752 -0.07980665 C149.97488568 -0.09415158 162.08641828 -0.10107789 174.19797516 -0.10021287 C181.00223638 -0.09988028 187.80646419 -0.10265447 194.61071777 -0.11339092 C201.00625186 -0.12341753 207.40173347 -0.12317992 213.79727173 -0.11587429 C216.15076805 -0.11482329 218.50426869 -0.11722159 220.85775757 -0.12323475 C224.05812935 -0.13088509 227.25825223 -0.12635642 230.45861816 -0.11860371 C231.40081963 -0.12374727 232.34302109 -0.12889083 233.31377411 -0.13419026 C234.59281994 -0.12729207 234.59281994 -0.12729207 235.89770508 -0.12025452 C237.00676083 -0.12058057 237.00676083 -0.12058057 238.13822174 -0.12091321 C239.94885254 0.12863445 239.94885254 0.12863445 241.94885254 2.12863445 C241.94885254 34.13863445 241.94885254 66.14863445 241.94885254 99.12863445 C160.10885254 99.12863445 78.26885254 99.12863445 -6.05114746 99.12863445 C-6.05114746 66.78863445 -6.05114746 34.44863445 -6.05114746 1.12863445 C-3.77352586 -0.01017635 -2.52957136 0.00241001 0 0 Z M5.01135254 18.44113445 C2.61945585 24.49122607 2.31675702 29.34906292 4.85900879 35.30050945 C7.23699964 39.28939733 10.54530033 41.66078372 14.94885254 43.12863445 C21.48307589 43.90109109 25.66006475 43.06929986 30.94885254 39.12863445 C34.12875063 35.27928414 35.85036562 32.15146713 35.94885254 27.12863445 C34.7498732 21.14434821 32.7978736 17.03150506 27.94885254 13.12863445 C19.518065 8.22660953 10.98556408 11.3106239 5.01135254 18.44113445 Z " fill="#FEFEFE" transform="translate(386.0511474609375,438.8713655471802)"/>
<path d="M0 0 C1.48831242 0.00667405 2.97660807 0.01863442 4.46484375 0.03515625 C5.22345703 0.03966797 5.98207031 0.04417969 6.76367188 0.04882812 C8.64326246 0.06064945 10.52281274 0.07858547 12.40234375 0.09765625 C12.54929687 0.87109375 12.69625 1.64453125 12.84765625 2.44140625 C14.60503071 10.60208764 16.69294986 16.66424787 23.59375 21.6953125 C29.98989302 25.38105142 36.12748563 26.20992795 43.40234375 25.09765625 C46.31608032 24.0773739 48.79113456 22.72372743 51.40234375 21.09765625 C52.11261719 20.75734375 52.82289063 20.41703125 53.5546875 20.06640625 C56.04480923 18.76080331 56.37009555 17.71268503 57.40234375 15.09765625 C57.64984375 14.50597656 57.89734375 13.91429687 58.15234375 13.3046875 C60.00669082 8.6955652 60.66464462 5.26155017 61.40234375 0.09765625 C93.41234375 0.09765625 125.42234375 0.09765625 158.40234375 0.09765625 C159.39234375 2.57265625 159.39234375 2.57265625 160.40234375 5.09765625 C162.7958587 6.25975844 162.7958587 6.25975844 165.40234375 6.09765625 C167.94078384 4.28448476 168.397234 3.1129855 169.40234375 0.09765625 C178.31234375 0.09765625 187.22234375 0.09765625 196.40234375 0.09765625 C197.39234375 2.07765625 198.38234375 4.05765625 199.40234375 6.09765625 C201.05234375 6.09765625 202.70234375 6.09765625 204.40234375 6.09765625 C205.39234375 4.11765625 206.38234375 2.13765625 207.40234375 0.09765625 C212.02234375 0.09765625 216.64234375 0.09765625 221.40234375 0.09765625 C221.8806665 1.45221924 222.35898926 2.80678223 222.85180664 4.20239258 C224.6602524 9.32263971 226.47039756 14.4422848 228.28100586 19.56176758 C229.05814811 21.75985088 229.83485505 23.95808815 230.61108398 26.15649414 C231.73952095 29.35215177 232.86931475 32.54732469 234 35.7421875 C234.55586288 37.31336838 234.55586288 37.31336838 235.12295532 38.91629028 C237.76723412 46.36708195 240.47634333 53.7919814 243.2802887 61.1842804 C247.41645867 72.22118066 247.6197256 82.29849578 242.71484375 93.09765625 C237.32951766 103.03231918 229.80855996 108.20653877 219.40234375 112.09765625 C208.13110362 114.79115113 198.61826597 111.80428823 188.984375 105.88793945 C184.75482932 102.95533181 181.26898394 99.42502286 177.71484375 95.72265625 C177.00779297 95.0059375 176.30074219 94.28921875 175.57226562 93.55078125 C172.16525444 90.07154771 168.87306128 86.52635288 165.69140625 82.83984375 C163.11779696 79.86258145 160.45181082 77.17104327 157.46484375 74.59765625 C156.69269531 73.92734375 155.92054688 73.25703125 155.125 72.56640625 C154.55652344 72.08171875 153.98804688 71.59703125 153.40234375 71.09765625 C155.77790593 68.64395058 158.14344985 66.53535433 160.90234375 64.53515625 C165.46072332 60.63499097 167.20595069 55.88284636 168.40234375 50.09765625 C168.79068037 43.50564211 167.25454209 37.48842029 163.40234375 32.09765625 C158.06778122 26.39562979 152.62680581 23.77142239 144.8671875 23.07421875 C137.95036345 23.13998887 131.81524831 25.56720711 126.875 30.40234375 C119.82978573 38.51274957 121.07988866 46.77909339 121.40234375 57.09765625 C112.82234375 57.09765625 104.24234375 57.09765625 95.40234375 57.09765625 C95.73234375 53.13765625 96.06234375 49.17765625 96.40234375 45.09765625 C94.95596176 37.50415081 92.53532883 31.99505826 86.40234375 27.09765625 C79.48795083 22.98878378 73.22144615 22.54781376 65.421875 24.1484375 C59.06746181 26.14600853 55.05233132 29.64461947 51.40234375 35.16015625 C48.13515984 41.76120129 48.09658422 49.01992415 50.32421875 55.9765625 C52.77400027 61.31358653 55.54147884 64.82185599 60.40234375 68.09765625 C61.88734375 68.59265625 61.88734375 68.59265625 63.40234375 69.09765625 C62.83759948 72.57307753 61.85662585 73.89284532 59.12109375 76.05859375 C55.34316354 79.21528677 51.87430608 82.56146851 48.43359375 86.07421875 C47.64033691 86.87965118 47.64033691 86.87965118 46.83105469 87.70135498 C44.63099721 89.9367988 42.43451843 92.17556372 40.24755859 94.42382812 C30.26954468 104.66527818 21.61466936 112.51693028 6.609375 113.23046875 C-3.29537116 112.74452161 -12.71806754 108.91049748 -19.9140625 102.05859375 C-22.78141913 98.71888835 -24.73788441 95.06668151 -26.59765625 91.09765625 C-27.01015625 90.29328125 -27.42265625 89.48890625 -27.84765625 88.66015625 C-31.58456626 75.89238038 -27.83627068 63.7611772 -23.38671875 51.68359375 C-22.77260635 49.98005234 -22.77260635 49.98005234 -22.14608765 48.24209595 C-20.84786122 44.64872502 -19.53533355 41.06076974 -18.22265625 37.47265625 C-17.34935485 35.0589212 -16.47695129 32.6448611 -15.60546875 30.23046875 C-4.70659066 0.12775762 -4.70659066 0.12775762 0 0 Z M179.21484375 17.09765625 C178.61671875 17.75765625 178.01859375 18.41765625 177.40234375 19.09765625 C178.06234375 21.07765625 178.72234375 23.05765625 179.40234375 25.09765625 C181.70388485 25.87567812 181.70388485 25.87567812 184.40234375 26.09765625 C186.70738419 24.76612359 186.70738419 24.76612359 188.40234375 23.09765625 C188.13577803 20.16322223 188.13577803 20.16322223 187.40234375 17.09765625 C183.75651368 14.66710287 182.53337538 14.06357019 179.21484375 17.09765625 Z " fill="#FEFEFE" transform="translate(573.59765625,647.90234375)"/>
<path d="M0 0 C6.6 0 13.2 0 20 0 C20.02505615 2.68560059 20.0501123 5.37120117 20.07592773 8.13818359 C20.15927207 16.9951196 20.24797451 25.85199604 20.33933926 34.70885277 C20.39458717 40.08062025 20.44801015 45.45239316 20.49731445 50.82421875 C20.54493044 56.00487751 20.59727224 61.18546863 20.65294075 66.36604691 C20.67337685 68.34604847 20.69208783 70.32606859 20.70907402 72.30610275 C20.73309026 75.07181277 20.76314858 77.83739424 20.79467773 80.60302734 C20.80331093 81.84056511 20.80331093 81.84056511 20.81211853 83.10310364 C20.76849416 87.18351815 20.76849416 87.18351815 22 91 C24.91652174 91.16681109 24.91652174 91.16681109 28 91 C31.00322179 87.99677821 30.30825918 84.63236328 30.31884766 80.60302734 C30.33407754 79.27938895 30.33407754 79.27938895 30.3496151 77.92901039 C30.38031954 75.06465708 30.39742713 72.20040354 30.4140625 69.3359375 C30.43099003 67.57071059 30.44880587 65.80549197 30.4675293 64.0402832 C30.53080094 57.485284 30.57684584 50.93012769 30.625 44.375 C30.74875 29.73125 30.8725 15.0875 31 0 C79.51 0 128.02 0 178 0 C174.62585034 12.37188209 174.62585034 12.37188209 173.14648438 16.48046875 C172.81604126 17.40512939 172.48559814 18.32979004 172.1451416 19.2824707 C171.62470276 20.72046021 171.62470276 20.72046021 171.09375 22.1875 C170.54479065 23.72313599 170.54479065 23.72313599 169.98474121 25.28979492 C168.43749594 29.61759451 166.88068213 33.94193457 165.32470703 38.26660156 C164.1818702 41.4473776 163.04396958 44.62989072 161.90625 47.8125 C161.38581116 49.2504895 161.38581116 49.2504895 160.8548584 50.7175293 C155.19051714 66.56774133 151.92630503 80.89342341 159 97 C161.61699743 101.49929256 164.47841728 105.52395761 168.21875 109.15234375 C170 111 170 111 170 113 C148.13007196 113.04666651 126.26015209 113.08196255 104.3901844 113.10362434 C94.23618025 113.11394845 84.08220699 113.12803037 73.92822266 113.15087891 C65.08071939 113.17077815 56.23323848 113.18370818 47.38571346 113.18817699 C42.69857254 113.19079026 38.01149561 113.19695599 33.32437515 113.21146011 C28.91677878 113.22498934 24.50927303 113.22923214 20.10165787 113.22621536 C18.4802603 113.22676762 16.85885984 113.23077273 15.23748016 113.23841095 C13.03102001 113.24829949 10.82490618 113.24599147 8.61843872 113.24050903 C7.38139254 113.24235262 6.14434635 113.24419621 4.86981392 113.24609566 C2 113 2 113 0 111 C-0.24609566 109.02037621 -0.24609566 109.02037621 -0.24050903 106.54550171 C-0.24325836 105.60878128 -0.24600769 104.67206085 -0.24884033 103.70695496 C-0.24164978 102.67621353 -0.23445923 101.64547211 -0.22705078 100.58349609 C-0.22734283 99.50055771 -0.22763489 98.41761932 -0.22793579 97.30186462 C-0.22653828 93.70897512 -0.21095718 90.11629094 -0.1953125 86.5234375 C-0.19158387 84.03764967 -0.18873619 81.55186038 -0.18673706 79.06607056 C-0.17987126 73.18350914 -0.16409547 67.30102398 -0.14403808 61.41849387 C-0.11950986 54.06546742 -0.10875255 46.71243187 -0.09765625 39.359375 C-0.07618531 26.23954451 -0.04203499 13.11977958 0 0 Z " fill="#FEFEFE" transform="translate(380,648)"/>
<path d="M0 0 C0.92453476 -0.00953201 1.84906952 -0.01906403 2.80162048 -0.02888489 C4.2892263 -0.02751778 4.2892263 -0.02751778 5.80688477 -0.02612305 C6.83258072 -0.03040817 7.85827667 -0.0346933 8.91505432 -0.03910828 C11.08284772 -0.04484762 13.25066038 -0.04535475 15.41845703 -0.04101562 C18.73251245 -0.03785684 22.04567414 -0.06131626 25.35961914 -0.08666992 C27.46703989 -0.08894308 29.57446304 -0.08964633 31.68188477 -0.08862305 C32.67159775 -0.09783279 33.66131073 -0.10704254 34.68101501 -0.11653137 C41.29749834 -0.07210616 44.55127525 0.86222899 49.58569336 5.26342773 C52.22136587 9.86410489 51.92144534 14.23749679 51.91235352 19.4543457 C51.92092377 20.5404715 51.92949402 21.62659729 51.93832397 22.74563599 C51.94979563 25.04027523 51.95082201 27.33498719 51.94213867 29.62963867 C51.93582453 33.13107159 51.9827222 36.62911265 52.03344727 40.13012695 C52.03799429 42.36319562 52.03939976 44.59627334 52.03735352 46.8293457 C52.05577301 47.8712204 52.0741925 48.91309509 52.09317017 49.98654175 C52.0156642 56.1108914 51.19161606 59.5862444 46.89071655 64.04812622 C44.00595468 66.2876322 41.26060097 66.40901654 37.75097656 66.45166016 C36.36890266 66.47091301 36.36890266 66.47091301 34.95890808 66.49055481 C33.46826591 66.50163521 33.46826591 66.50163521 31.94750977 66.51293945 C30.92277054 66.5210112 29.89803131 66.52908295 28.84223938 66.53739929 C26.67267546 66.55123263 24.50308985 66.56195814 22.33349609 66.56982422 C19.02147043 66.58703773 15.71044282 66.63093145 12.39868164 66.67504883 C10.28996502 66.68517596 8.18123991 66.693692 6.07250977 66.70043945 C5.08482101 66.71794754 4.09713226 66.73545563 3.07951355 66.75349426 C-2.68928498 66.7353633 -6.18741622 66.25464332 -10.68920898 62.2746582 C-13.38247171 59.25321983 -14.06972549 57.35701234 -14.10913086 53.32592773 C-14.12504272 52.34455841 -14.14095459 51.36318909 -14.15734863 50.3520813 C-14.15755005 49.2978598 -14.15775146 48.24363831 -14.15795898 47.1574707 C-14.16557251 46.06755829 -14.17318604 44.97764587 -14.18103027 43.85470581 C-14.19183214 41.54988901 -14.19468405 39.24502327 -14.19018555 36.94018555 C-14.18921441 33.41933177 -14.23081341 29.90066542 -14.27514648 26.38012695 C-14.28035443 24.13924608 -14.28304166 21.89835763 -14.28295898 19.6574707 C-14.29935425 18.60729767 -14.31574951 17.55712463 -14.3326416 16.47512817 C-14.25573076 8.31184114 -14.25573076 8.31184114 -11.40209961 4.68823242 C-7.62320926 1.32627148 -5.06021143 0.02874817 0 0 Z " fill="#5C9431" transform="translate(580.689208984375,559.725341796875)"/>
<path d="M0 0 C12.931875 -0.0928125 12.931875 -0.0928125 26.125 -0.1875 C28.83734863 -0.21481201 31.54969727 -0.24212402 34.34423828 -0.27026367 C36.50292516 -0.27902855 38.66161701 -0.28667248 40.8203125 -0.29296875 C41.93398193 -0.30831665 43.04765137 -0.32366455 44.19506836 -0.33947754 C49.8619604 -0.34138816 54.16187962 -0.3187843 59 3 C63.27899069 7.49788296 63.38867719 11.29899728 63.25390625 17.20117188 C63.21136719 18.18666016 63.16882813 19.17214844 63.125 20.1875 C63.05615213 22.1598641 62.99586602 24.13255098 62.9453125 26.10546875 C62.90937988 26.97324951 62.87344727 27.84103027 62.83642578 28.73510742 C62.83335228 31.28446197 62.83335228 31.28446197 65 34 C65.49068223 37.92115704 65.4165342 41.86394167 65.4375 45.8125 C65.47037109 46.89337891 65.50324219 47.97425781 65.53710938 49.08789062 C65.59734591 58.00837339 65.59734591 58.00837339 62.72265625 61.63671875 C58.55306689 65.25594624 55.93074814 66.25194031 50.40527344 66.22705078 C49.26880371 66.22680908 48.13233398 66.22656738 46.96142578 66.22631836 C45.77274902 66.21608643 44.58407227 66.20585449 43.359375 66.1953125 C41.71412842 66.19229126 41.71412842 66.19229126 40.03564453 66.18920898 C35.94038712 66.17874892 31.84518934 66.15082634 27.75 66.125 C18.5925 66.08375 9.435 66.0425 0 66 C0 44.22 0 22.44 0 0 Z " fill="#5C9531" transform="translate(643,560)"/>
<path d="M0 0 C1.532864 -0.00430527 1.532864 -0.00430527 3.09669495 -0.00869751 C5.25432897 -0.01073574 7.41198157 -0.00522276 9.56958008 0.00732422 C12.86386678 0.02336427 16.15692352 0.00747535 19.45117188 -0.01171875 C21.55078395 -0.00973595 23.65039526 -0.00589152 25.75 0 C26.73141464 -0.00607269 27.71282928 -0.01214539 28.72398376 -0.0184021 C33.97421878 0.03530801 38.07479319 0.16363403 42.44140625 3.3984375 C47.45066335 9.53410108 46.96507528 15.67099894 46.83203125 23.33203125 C46.82637146 24.56510513 46.82071167 25.79817902 46.81488037 27.06861877 C46.79256174 30.99145989 46.74237048 34.91337429 46.69140625 38.8359375 C46.66907426 41.50193976 46.65308594 44.16793332 46.63671875 46.83398438 C46.59271121 53.35582364 46.52371199 59.87697366 46.44140625 66.3984375 C42.15140625 66.3984375 37.86140625 66.3984375 33.44140625 66.3984375 C33.44140625 59.1384375 33.44140625 51.8784375 33.44140625 44.3984375 C19.91140625 44.3984375 6.38140625 44.3984375 -7.55859375 44.3984375 C-7.55859375 51.6584375 -7.55859375 58.9184375 -7.55859375 66.3984375 C-11.51859375 66.3984375 -15.47859375 66.3984375 -19.55859375 66.3984375 C-19.64914285 59.07022919 -19.72245167 51.74232913 -19.76584244 44.41367912 C-19.78667321 41.01027432 -19.81490633 37.60727375 -19.86035156 34.20410156 C-19.91232725 30.28715944 -19.93157644 26.37037815 -19.94921875 22.453125 C-19.96986389 21.23728729 -19.99050903 20.02144958 -20.01177979 18.76876831 C-20.01462739 8.01707928 -20.01462739 8.01707928 -15.55859375 3.3984375 C-11.01222656 -0.62590201 -5.75533836 -0.03553897 0 0 Z " fill="#5B9331" transform="translate(350.55859375,559.6015625)"/>
<path d="M0 0 C13 0 13 0 16.796875 2.89453125 C17.82105333 4.16954563 18.80505797 5.47770133 19.75 6.8125 C20.54639893 7.82679077 20.54639893 7.82679077 21.35888672 8.86157227 C22.94059302 10.88370237 24.46992373 12.93868932 26 15 C27.68574291 17.16535862 29.40169897 19.30149905 31.125 21.4375 C32.14980469 22.76587891 32.14980469 22.76587891 33.1953125 24.12109375 C33.79085937 24.74113281 34.38640625 25.36117187 35 26 C37.92817562 26.32696201 37.92817562 26.32696201 39.39111328 24.79760742 C39.86274902 24.23920166 40.33438477 23.6807959 40.8203125 23.10546875 C41.35076172 22.48422119 41.88121094 21.86297363 42.42773438 21.22290039 C42.98783203 20.55121826 43.54792969 19.87953613 44.125 19.1875 C44.70830078 18.51130615 45.29160156 17.8351123 45.89257812 17.13842773 C48.54960411 14.03648905 51.10565657 10.93698835 53.3984375 7.5546875 C55.5 4.5625 55.5 4.5625 60 0 C64.29 0 68.58 0 73 0 C73 21.78 73 43.56 73 66 C69.04 66 65.08 66 61 66 C60.67 50.82 60.34 35.64 60 20 C49.64958116 31.89305415 49.64958116 31.89305415 39.8046875 44.12109375 C39.20914063 44.74113281 38.61359375 45.36117187 38 46 C35 46 35 46 33.60888672 44.79760742 C33.13725098 44.23920166 32.66561523 43.6807959 32.1796875 43.10546875 C31.6434375 42.47833984 31.1071875 41.85121094 30.5546875 41.20507812 C30.00039063 40.53927734 29.44609375 39.87347656 28.875 39.1875 C28.07835937 38.25260742 28.07835937 38.25260742 27.265625 37.29882812 C22.43035517 31.5984804 17.73342256 25.78529424 13 20 C12.67 35.18 12.34 50.36 12 66 C8.04 66 4.08 66 0 66 C0 44.22 0 22.44 0 0 Z " fill="#5A9230" transform="translate(483,560)"/>
<path d="M0 0 C19.8 0 39.6 0 60 0 C60 3.96 60 7.92 60 12 C44.16 12 28.32 12 12 12 C12 16.95 12 21.9 12 27 C24.87 27 37.74 27 51 27 C51 30.96 51 34.92 51 39 C38.13 39 25.26 39 12 39 C12 43.95 12 48.9 12 54 C27.84 54 43.68 54 60 54 C60 57.96 60 61.92 60 66 C40.2 66 20.4 66 0 66 C0 44.22 0 22.44 0 0 Z " fill="#5C9531" transform="translate(810,560)"/>
<path d="M0 0 C3.96 0 7.92 0 12 0 C12 17.82 12 35.64 12 54 C25.53 54 39.06 54 53 54 C53 36.18 53 18.36 53 0 C56.96 0 60.92 0 65 0 C65.13591038 7.44126746 65.24583293 14.88184943 65.31087303 22.32409763 C65.34209993 25.78042007 65.38440778 29.23584465 65.45263672 32.69165039 C65.53069714 36.67062383 65.55948975 40.64924211 65.5859375 44.62890625 C65.61690521 45.86145645 65.64787292 47.09400665 65.67977905 48.36390686 C65.68234648 54.93945074 65.3431535 59.07690626 60.58486938 63.84117126 C57.65895909 65.98054562 54.93473914 66.13454145 51.44018555 66.17700195 C50.05811165 66.19625481 50.05811165 66.19625481 48.64811707 66.21589661 C47.1574749 66.22697701 47.1574749 66.22697701 45.63671875 66.23828125 C44.61197952 66.246353 43.5872403 66.25442474 42.53144836 66.26274109 C40.36188445 66.27657442 38.19229884 66.28729993 36.02270508 66.29516602 C32.71067941 66.31237953 29.39965181 66.35627324 26.08789062 66.40039062 C23.979174 66.41051775 21.8704489 66.41903379 19.76171875 66.42578125 C18.77403 66.44328934 17.78634125 66.46079742 16.76872253 66.47883606 C10.999924 66.4607051 7.50179276 65.97998512 3 62 C0.00829348 58.74874808 -0.36912367 56.59896332 -0.34057617 52.22167969 C-0.34034958 51.0607782 -0.34012299 49.89987671 -0.33988953 48.70379639 C-0.32440567 47.45576233 -0.30892181 46.20772827 -0.29296875 44.921875 C-0.28872391 43.64016418 -0.28447906 42.35845337 -0.28010559 41.03790283 C-0.26867648 37.63800365 -0.23922666 34.23849177 -0.20599365 30.83874512 C-0.17525063 27.36650837 -0.16159126 23.89420876 -0.14648438 20.421875 C-0.1143545 13.61440864 -0.06160276 6.80726281 0 0 Z " fill="#5B9431" transform="translate(407,560)"/>
<path d="M0 0 C10.89822479 -1.51598181 10.89822479 -1.51598181 15.55078125 1.83984375 C17.87989093 4.45854078 19.94992677 7.15768236 22 10 C23.61180943 12.05209603 25.23657523 14.09409083 26.875 16.125 C27.59429687 17.05570313 28.31359375 17.98640625 29.0546875 18.9453125 C29.69664062 19.62335937 30.33859375 20.30140625 31 21 C31.99 21 32.98 21 34 21 C36.05723535 18.85964403 37.93859521 16.72937612 39.8125 14.4375 C41.35816962 12.5862227 42.90382483 10.73503073 44.45507812 8.88842773 C45.49711538 7.61469857 46.50609174 6.31329219 47.48242188 4.98852539 C51.17600967 0.16423497 51.17600967 0.16423497 55.4296875 -0.68359375 C57.13511719 -0.56177734 57.13511719 -0.56177734 58.875 -0.4375 C60.02742188 -0.37433594 61.17984375 -0.31117188 62.3671875 -0.24609375 C63.23601562 -0.16488281 64.10484375 -0.08367188 65 0 C64.56830433 4.87456358 62.1490523 7.62077556 59 11.125 C58.00068009 12.27289631 57.0019925 13.42134337 56.00390625 14.5703125 C55.50133301 15.14297852 54.99875977 15.71564453 54.48095703 16.30566406 C52.26404566 18.84199194 50.09413123 21.41204253 47.9375 24 C47.22464844 24.845625 46.51179688 25.69125 45.77734375 26.5625 C44.01408686 28.98068088 42.97139968 31.18143098 42 34 C47.35163552 40.59374351 52.76465673 47.12603512 58.28051758 53.58276367 C59.5285333 55.04824186 60.76473554 56.52375771 62 58 C62.60070312 58.70253906 63.20140625 59.40507813 63.8203125 60.12890625 C65 62 65 62 65 66 C60.49359435 66.69926984 56.49195233 66.8764785 52 66 C47.87480388 62.93224852 45.0540374 59.10228786 42 55 C41.1346207 53.93436764 40.26220517 52.87441031 39.3828125 51.8203125 C37.22705211 49.23474319 35.10411283 46.62759983 33 44 C29.50685531 46.63496728 26.78617792 49.28273914 24.125 52.75 C23.43019531 53.61882813 22.73539062 54.48765625 22.01953125 55.3828125 C20.75324218 57.02384476 19.53329268 58.70288609 18.38671875 60.4296875 C16.70448853 62.77562641 15.40756452 64.39202807 13 66 C8.58494196 66.65293112 4.42640118 66.47924945 0 66 C0.51956378 61.59158007 2.0100714 59.34411595 4.875 56 C5.67808594 55.04867187 6.48117187 54.09734375 7.30859375 53.1171875 C8.6917602 51.51009942 10.0801177 49.9076077 11.46923828 48.30566406 C12.47074585 47.14965305 13.47010162 45.99177427 14.46728516 44.83203125 C15.42773574 43.71687508 16.39461609 42.60721582 17.36865234 41.50390625 C19.97189764 38.4899204 21.77316704 35.79967693 23 32 C22.31035156 31.18917969 21.62070312 30.37835937 20.91015625 29.54296875 C14.86461638 22.42389149 8.84087541 15.28892578 3 8 C2.13375 6.98099609 2.13375 6.98099609 1.25 5.94140625 C0 4 0 4 0 0 Z " fill="#5B9331" transform="translate(256,560)"/>
<path d="M0 0 C13.53 0 27.06 0 41 0 C41 13.86 41 27.72 41 42 C27.47 42 13.94 42 0 42 C0 28.14 0 14.28 0 0 Z " fill="#000000" transform="translate(579,572)"/>
<path d="M0 0 C3.96 0 7.92 0 12 0 C12 17.82 12 35.64 12 54 C29.49 54 46.98 54 65 54 C65 57.96 65 61.92 65 66 C43.55 66 22.1 66 0 66 C0 44.22 0 22.44 0 0 Z " fill="#5B9431" transform="translate(739,560)"/>
<path d="M0 0 C13.53 0 27.06 0 41 0 C41 6.6 41 13.2 41 20 C27.47 20 13.94 20 0 20 C0 13.4 0 6.8 0 0 Z " fill="#000000" transform="translate(343,572)"/>
<path d="M0 0 C3.96 0 7.92 0 12 0 C12 21.78 12 43.56 12 66 C8.04 66 4.08 66 0 66 C0 44.22 0 22.44 0 0 Z " fill="#5A9230" transform="translate(719,560)"/>
<path d="M0 0 C13.53 0 27.06 0 41 0 C41 5.28 41 10.56 41 16 C27.47 16 13.94 16 0 16 C0 10.72 0 5.44 0 0 Z " fill="#000100" transform="translate(655,598)"/>
<path d="M0 0 C4.6314797 2.53420588 8.31032562 4.93097685 10 10 C10.34831525 15.39888643 10.43100532 18.58870745 7 23 C3.51474736 26.92090922 1.44962305 27.90647593 -3.875 28.25 C-7.71742642 28.1866633 -9.94499461 27.46097657 -13 25 C-16.03746358 21.54066648 -17.89368068 19.3821512 -18.25 14.75 C-17.89101373 9.36520593 -16.44494278 6.30397275 -12.4375 2.6875 C-8.34327699 -0.14696208 -4.92852895 -0.67916414 0 0 Z " fill="#FFFFFF" transform="translate(650,681)"/>
<path d="M0 0 C3.49797886 2.40971877 5.41916295 4.97790374 6.8125 8.9375 C7.46836936 12.8211309 7.20554079 16.02730027 5.625 19.6875 C3.12386766 22.79235394 0.38576648 25.15086676 -3.1875 26.9375 C-7.83045428 27.32441286 -10.2436853 27.40940735 -14.4375 25.3125 C-18.56507438 21.74777667 -20.93693987 18.94198104 -21.625 13.4375 C-20.97894716 8.2690773 -19.51941028 5.16951701 -15.6875 1.625 C-10.6326698 -1.78701038 -5.72465049 -1.90821683 0 0 Z " fill="#FFFFFF" transform="translate(725.1875,682.0625)"/>
<path d="M0 0 C12.87 0 25.74 0 39 0 C39 4.62 39 9.24 39 14 C26.13 14 13.26 14 0 14 C0 9.38 0 4.76 0 0 Z " fill="#000100" transform="translate(655,572)"/>
<path d="M0 0 C8.91 0 17.82 0 27 0 C28.20619667 4.82478668 27.43415289 6.02382009 25.15625 10.1640625 C23.16969324 13.31839249 21.60184433 14.61102442 17.95703125 15.49609375 C12.76640866 16.33946124 9.43697819 16.12605282 5 13 C2.125 10.25 2.125 10.25 0 7 C0 4.69 0 2.38 0 0 Z " fill="#FAFAFA" transform="translate(597,648)"/>
<path d="M0 0 C0.05382106 2.62527189 0.09358313 5.24944713 0.125 7.875 C0.14175781 8.62136719 0.15851562 9.36773438 0.17578125 10.13671875 C0.1933959 12.09194461 0.10320189 14.04742021 0 16 C-2 18 -2 18 -5.6953125 18.1953125 C-7.17200108 18.182009 -8.64862358 18.15814835 -10.125 18.125 C-10.87910156 18.11597656 -11.63320313 18.10695313 -12.41015625 18.09765625 C-14.27357254 18.0740687 -16.13682593 18.03819719 -18 18 C-14.2698595 13.46334263 -10.32946434 9.22058878 -6.1875 5.0625 C-5.69531982 4.56580811 -5.20313965 4.06911621 -4.69604492 3.55737305 C-1.12375366 0 -1.12375366 0 0 0 Z " fill="#FFFFFF" transform="translate(628,743)"/>
<path d="M0 0 C1.175625 0.0825 2.35125 0.165 3.5625 0.25 C5.71012184 3.47143276 6.123568 4.5095467 5.5625 8.25 C3.875 10.125 3.875 10.125 1.5625 11.25 C-1.80786311 11.00925978 -3.02548021 10.66201979 -5.4375 8.25 C-4.74408106 0.34502408 -4.74408106 0.34502408 0 0 Z " fill="#FFFFFF" transform="translate(405.4375,460.75)"/>
</svg>
